<svg width="100" height="100" fill="none" xmlns="http://www.w3.org/2000/svg">
    <g clip-path="url(#a)">
        <path d="M18.974 7.467c-26.431 23.347 7.584 45.979 4.344 71.49-1.44 11.342 3.136 22.185 18.107 20.946 18.244-1.51 11.621-18.986 15.442-30.62 6.574-20.02 47.018-15.344 30.253-46.182C76.421 3.421 37.166-8.602 18.974 7.467z" fill="url(#b)"/>
        <path opacity=".1" d="M91.157 23.957a9.64 9.64 0 1 0-19.19 1.317c-6.062-4.384-13.272-6.75-20.807-6.75h-.065c-9.6.017-18.621 3.768-25.404 10.563-6.784 6.795-10.52 15.825-10.52 25.427a35.767 35.767 0 0 0 4.683 17.734 9.64 9.64 0 1 0 13.525 13.546 35.768 35.768 0 0 0 17.782 4.709 3.515 3.515 0 0 0 0-7.03A28.79 28.79 0 0 1 35.4 78.799a9.643 9.643 0 0 0-8.548-8.56A28.789 28.789 0 0 1 22.2 54.512c0-15.94 12.968-28.932 28.908-28.96h.051c7.607 0 14.815 3.013 20.3 8.489 5.586 5.576 8.663 12.945 8.663 20.75v5.233a6.039 6.039 0 0 1-6.032 6.031 6.038 6.038 0 0 1-6.032-6.031V41.564c0-.932-.37-1.826-1.03-2.485-4.162-4.164-9.694-6.437-15.586-6.393-5.887.04-11.392 2.39-15.5 6.613-3.968 4.08-6.153 9.483-6.153 15.214 0 5.73 2.185 11.134 6.153 15.214 4.108 4.224 9.613 6.572 15.5 6.613h.156c5.532 0 10.745-2.04 14.788-5.775a12.99 12.99 0 0 0 7.704 2.52c7.202 0 13.06-5.86 13.06-13.06V54.79c0-7.73-2.428-15.108-6.925-21.283.423.056.854.088 1.292.088 5.324.001 9.64-4.315 9.64-9.639zM51.491 69.312a14.697 14.697 0 0 1-10.51-4.485c-5.53-5.687-5.53-14.94 0-20.627a14.7 14.7 0 0 1 10.51-4.485h.106c3.485 0 6.784 1.195 9.433 3.395v16.915c0 1.767.352 3.453.99 4.991a14.716 14.716 0 0 1-10.53 4.296z" fill="#2626BC"/>
        <path d="M51.161 85.683c-19.845 0-35.99-16.144-35.99-35.99 0-9.6 3.736-18.631 10.52-25.426 6.783-6.794 15.805-10.546 25.405-10.563h.064c9.482 0 18.452 3.743 25.265 10.544 6.917 6.904 10.726 16.04 10.726 25.724v5.233c0 7.202-5.86 13.06-13.06 13.06-2.88 0-5.543-.935-7.704-2.519-4.044 3.734-9.257 5.776-14.788 5.776h-.157c-5.887-.042-11.392-2.39-15.5-6.614-3.967-4.08-6.153-9.483-6.153-15.214 0-5.73 2.186-11.134 6.153-15.214 4.108-4.224 9.613-6.572 15.5-6.613 5.892-.044 11.424 2.23 15.587 6.393a3.514 3.514 0 0 1 1.03 2.485v18.46a6.039 6.039 0 0 0 6.031 6.032 6.038 6.038 0 0 0 6.032-6.031v-5.234c0-7.804-3.076-15.173-8.663-20.75-5.485-5.475-12.693-8.489-20.3-8.489h-.051c-15.94.029-28.908 13.02-28.908 28.961 0 15.97 12.992 28.961 28.961 28.961a3.514 3.514 0 0 1 0 7.028zm.436-50.788h-.106a14.698 14.698 0 0 0-10.51 4.485c-5.53 5.687-5.53 14.94 0 20.627a14.698 14.698 0 0 0 10.51 4.486 14.715 14.715 0 0 0 10.53-4.297 12.994 12.994 0 0 1-.991-4.99V38.29a14.676 14.676 0 0 0-9.433-3.396z" fill="#FF7EB8"/>
        <path d="M76.424 24.248a36.944 36.944 0 0 0-4.076-3.518 9.596 9.596 0 0 0-.472 2.986c0 5.326 4.318 9.641 9.641 9.641.522 0 1.034-.042 1.535-.122a36.766 36.766 0 0 0-6.628-8.987z" fill="#FF5BA8"/>
        <path d="M81.517 28.778a9.64 9.64 0 1 0 0-19.28 9.64 9.64 0 0 0 0 19.28z" fill="#02FFB3"/>
        <path d="M84.853 17.971a3.34 3.34 0 0 0-3.336-3.336 3.34 3.34 0 0 0-3.336 3.336c0 .907.365 1.73.954 2.332a3.324 3.324 0 0 0-.954 2.332 1.004 1.004 0 0 0 2.008 0 1.33 1.33 0 0 1 1.328-1.328 1.33 1.33 0 0 1 1.328 1.329 1.004 1.004 0 0 0 2.008 0c0-.908-.365-1.73-.955-2.333.59-.602.955-1.425.955-2.332zm-3.336-1.328a1.33 1.33 0 0 1 1.328 1.328 1.33 1.33 0 0 1-1.328 1.328 1.33 1.33 0 0 1-1.328-1.328 1.33 1.33 0 0 1 1.328-1.328z" fill="#fff"/>
        <path d="M25.814 84.48a9.64 9.64 0 1 0-9.64-9.64c0 5.324 4.316 9.64 9.64 9.64z" fill="#9FB0FE"/>
        <path d="M29.15 73.674a3.34 3.34 0 0 0-3.336-3.337 3.34 3.34 0 0 0-3.336 3.337c0 .907.365 1.73.954 2.332a3.324 3.324 0 0 0-.954 2.332 1.004 1.004 0 0 0 2.008 0 1.33 1.33 0 0 1 1.328-1.328 1.33 1.33 0 0 1 1.328 1.328 1.004 1.004 0 0 0 2.008 0c0-.907-.365-1.73-.955-2.332.59-.602.955-1.425.955-2.332zm-3.336-1.328a1.33 1.33 0 0 1 1.328 1.328 1.33 1.33 0 0 1-1.328 1.328 1.33 1.33 0 0 1-1.328-1.328 1.33 1.33 0 0 1 1.328-1.328z" fill="#fff"/>
        <path d="M66.09 80.383a.977.977 0 0 1-.978-.977c0-.68-.552-1.232-1.232-1.232a.977.977 0 1 1 0-1.953c.68 0 1.232-.553 1.232-1.233a.977.977 0 0 1 1.954 0c0 .68.552 1.233 1.232 1.233a.977.977 0 1 1 0 1.953c-.68 0-1.232.553-1.232 1.232 0 .54-.438.977-.977.977z" fill="#FF7EB8"/>
        <path d="M75.255 87.828a.977.977 0 0 1-.977-.976c0-.68-.553-1.233-1.233-1.233a.977.977 0 0 1 0-1.953c.68 0 1.233-.553 1.233-1.233a.977.977 0 1 1 1.953 0c0 .68.553 1.233 1.233 1.233a.977.977 0 1 1 0 1.953c-.68 0-1.233.553-1.233 1.233 0 .539-.437.976-.976.976z" fill="#6583FE"/>
        <path d="M19.15 19.7a.977.977 0 0 1-.977-.977c0-.68-.553-1.232-1.232-1.232a.977.977 0 1 1 0-1.953c.679 0 1.232-.553 1.232-1.233a.977.977 0 1 1 1.953 0c0 .68.553 1.233 1.233 1.233a.977.977 0 1 1 0 1.953c-.68 0-1.233.553-1.233 1.232 0 .54-.437.977-.976.977z" fill="#FF7EB8"/>
        <path d="M11.052 27.798a.977.977 0 0 1-.691-.286l-2.21-2.21a.977.977 0 0 1 .001-1.38l2.21-2.21a.976.976 0 0 1 1.38 0l2.21 2.21a.976.976 0 0 1 0 1.38l-2.21 2.21a.976.976 0 0 1-.69.286zm-.828-3.185.828.827.827-.828-.827-.827-.828.828z" fill="#6583FE"/>
        <path d="M82.845 81.59c-.25 0-.5-.096-.69-.287l-2.21-2.209a.976.976 0 0 1 0-1.38l2.21-2.21a.976.976 0 0 1 1.38 0l2.21 2.21a.976.976 0 0 1 0 1.38l-2.21 2.21a.973.973 0 0 1-.69.285zm-.828-3.186.828.828.828-.828-.828-.828-.828.828z" fill="#01ECA5"/>
        <path d="M61.654 37.54c-2.852-2.37-6.33-3.622-10.057-3.622h-.113A15.667 15.667 0 0 0 40.28 38.7c-5.896 6.062-5.896 15.926 0 21.988a15.667 15.667 0 0 0 11.203 4.781c.031-.002.065 0 .097 0 4.203 0 8.151-1.624 11.128-4.58a.977.977 0 0 0 .214-1.067 11.98 11.98 0 0 1-.917-4.617V38.291c0-.29-.129-.566-.352-.751zM51.58 63.516h-.085a13.73 13.73 0 0 1-9.815-4.19c-5.165-5.31-5.165-13.953 0-19.265a13.73 13.73 0 0 1 9.817-4.19h.099c3.114 0 6.027.997 8.456 2.887v16.447c0 1.629.276 3.218.821 4.734a13.74 13.74 0 0 1-9.293 3.577z" fill="#2626BC"/>
        <path d="M92.134 19.137c0-5.854-4.763-10.617-10.617-10.617-5.657 0-10.294 4.448-10.6 10.03a36.27 36.27 0 0 0-19.757-5.822h-.066c-9.86.017-19.127 3.87-26.094 10.849-6.968 6.98-10.805 16.255-10.805 26.117 0 6.069 1.51 12.078 4.364 17.405a10.587 10.587 0 0 0-3.362 7.74c0 5.855 4.763 10.618 10.617 10.618 5.557 0 10.127-4.292 10.578-9.735A29.789 29.789 0 0 0 51.16 79.63c1.4 0 2.54 1.14 2.54 2.54a2.541 2.541 0 0 1-2.54 2.537 34.85 34.85 0 0 1-10.757-1.691.977.977 0 1 0-.602 1.858 36.8 36.8 0 0 0 11.36 1.785 4.496 4.496 0 0 0 4.491-4.49 4.497 4.497 0 0 0-4.492-4.492 27.843 27.843 0 0 1-14.828-4.266 10.637 10.637 0 0 0-9.006-9.079 27.85 27.85 0 0 1-4.149-14.64c0-15.402 12.53-27.955 27.93-27.984h.053c7.346 0 14.31 2.914 19.609 8.205 5.4 5.392 8.375 12.515 8.375 20.059v5.232a5.06 5.06 0 0 1-5.054 5.055 5.06 5.06 0 0 1-5.055-5.055v-6.41a.977.977 0 1 0-1.953 0v6.41a7.016 7.016 0 0 0 7.008 7.008 7.016 7.016 0 0 0 7.007-7.008v-5.232c0-8.066-3.177-15.68-8.948-21.441-5.667-5.66-13.121-8.776-20.989-8.776h-.054c-16.477.03-29.881 13.46-29.881 29.938 0 5.123 1.308 10.12 3.791 14.563-1.79.133-3.456.712-4.89 1.626a35.003 35.003 0 0 1-3.978-16.189c0-9.34 3.635-18.126 10.234-24.737 6.599-6.61 15.376-10.259 24.713-10.276h.065c7.15 0 14.027 2.183 19.888 6.313l.02.011a10.64 10.64 0 0 0 8.604 8.586 34.96 34.96 0 0 1 6.502 20.381v5.234c0 6.663-5.42 12.084-12.084 12.084-2.582 0-5.046-.806-7.126-2.331a.977.977 0 0 0-1.24.07 20.758 20.758 0 0 1-14.126 5.516h-.15c-5.623-.04-10.882-2.283-14.806-6.317-3.79-3.897-5.877-9.059-5.877-14.534 0-5.475 2.087-10.636 5.877-14.533 3.924-4.035 9.183-6.279 14.807-6.317l.16-.001c5.562 0 10.787 2.165 14.73 6.108.478.479.743 1.116.743 1.794v5.476a.977.977 0 0 0 1.953 0v-5.476c0-1.2-.468-2.328-1.316-3.176-4.31-4.311-10.025-6.68-16.108-6.68l-.176.001c-6.15.043-11.902 2.497-16.193 6.91-4.146 4.263-6.43 9.907-6.43 15.894s2.284 11.632 6.43 15.895c4.292 4.413 10.042 6.866 16.193 6.909h.163a22.704 22.704 0 0 0 14.865-5.512 13.907 13.907 0 0 0 7.627 2.257c7.74 0 14.037-6.297 14.037-14.037V49.97c0-7.25-2.068-14.208-5.994-20.237 5.568-.32 10-4.95 10-10.597zM34.478 74.84c0 4.777-3.887 8.664-8.664 8.664-4.777 0-8.664-3.886-8.664-8.664 0-4.777 3.887-8.664 8.664-8.664 4.777 0 8.664 3.887 8.664 8.664zm47.039-47.039c-4.777 0-8.664-3.886-8.664-8.664 0-4.777 3.887-8.664 8.664-8.664 4.777 0 8.664 3.887 8.664 8.664 0 4.778-3.887 8.664-8.664 8.664z" fill="#2626BC"/>
    </g>
    <defs>
        <linearGradient id="b" x1="8.842" y1="50" x2="91.157" y2="50" gradientUnits="userSpaceOnUse">
            <stop offset=".049" stop-color="#D2DEFF"/>
            <stop offset=".999" stop-color="#DCFDEE"/>
        </linearGradient>
        <clipPath id="a">
            <path fill="#fff" d="M0 0h100v100H0z"/>
        </clipPath>
    </defs>
</svg>
