<svg width="110" height="110" viewBox="0 0 110 110" fill="none" xmlns="http://www.w3.org/2000/svg">
    <path d="M56.678 45.696C42.474 31.494 26.898 24.04 21.888 29.05a5.009 5.009 0 0 0-1.18 2.038l-.081-.08-4.785 19.608-4.765 19.55-5.648 23.15-3.575 14.661 21.168-8.01 26.925-10.188 21.48-8.127-.026-.026a5 5 0 0 0 1.925-1.138c5.01-5.01-2.443-20.586-16.648-34.79z" fill="#DD1C4B"/>
    <path d="M56.678 45.69c-14.204-14.203-29.78-21.657-34.79-16.647-5.01 5.01 2.444 20.585 16.648 34.79C52.74 78.036 68.316 85.49 73.326 80.48c5.01-5.01-2.444-20.585-16.648-34.79z" fill="#D1E3EE"/>
    <path d="M69.477 82.285c-2.565.045-5.11-.46-7.462-1.481l-17.557 6.643-26.934 10.179-14.443 5.464-1.227 5.035 21.168-8.011 26.925-10.187 19.713-7.459-.183-.183z" fill="#B21D48"/>
    <path d="M91.652 67.807c-.22 0-.437-.04-.644-.116a56.642 56.642 0 0 0-29.16-2.833l-6.546 1.09a1.833 1.833 0 0 1-.605-3.613l6.548-1.1a60.349 60.349 0 0 1 31.05 3.015 1.833 1.833 0 0 1-.643 3.557zM58.665 56.811a1.833 1.833 0 0 1-.788-3.482l38.485-18.326a1.833 1.833 0 1 1 1.576 3.31L59.453 56.639a1.833 1.833 0 0 1-.788.172zM37.234 53.146a1.832 1.832 0 0 1-1.69-2.538l2.665-6.394a51.264 51.264 0 0 0 2.736-30.988 1.833 1.833 0 1 1 3.577-.795 54.907 54.907 0 0 1-2.932 33.194l-2.667 6.394a1.833 1.833 0 0 1-1.69 1.127z" fill="#FFBF41"/>
    <path d="M100.816 75.137a3.665 3.665 0 1 0 0-7.33 3.665 3.665 0 0 0 0 7.33z" fill="#D5557E"/>
    <path d="M56.832 23.824a3.665 3.665 0 1 0 0-7.33 3.665 3.665 0 0 0 0 7.33z" fill="#DD95C1"/>
    <path d="M40.34 7.33A3.665 3.665 0 1 1 40.338 0a3.665 3.665 0 0 1 0 7.33z" fill="#7FCCCB"/>
    <path d="M91.652 14.66a1.833 1.833 0 0 1-1.833-1.832v-1.832a1.833 1.833 0 0 1 3.666 0v1.832c0 1.012-.821 1.833-1.833 1.833zM91.652 5.498a1.833 1.833 0 0 1-1.833-1.833V1.833a1.833 1.833 0 0 1 3.666 0v1.832c0 1.012-.821 1.833-1.833 1.833zM97.15 9.163h-1.833a1.833 1.833 0 0 1 0-3.665h1.833a1.833 1.833 0 0 1 0 3.665zM87.987 9.163h-1.833a1.833 1.833 0 0 1 0-3.665h1.833a1.833 1.833 0 0 1 0 3.665z" fill="#2276BB"/>
    <path d="M16.4 53.146a51.343 51.343 0 0 1-.558-2.382l-4.765 19.55.367 4.47a41.142 41.142 0 0 0 11.576 25.321l26.927-10.178c-.147-.046-.299-.08-.445-.129A53.73 53.73 0 0 1 16.4 53.147z" fill="#fff"/>
    <path d="M49.947 89.927c-.147-.046-.299-.08-.446-.129a53.598 53.598 0 0 1-5.175-2.278l-24.253 9.176a41.044 41.044 0 0 0 2.949 3.418l26.925-10.188z" fill="#F6F6E7"/>
    <path d="M78.824 21.953v9.201h-9.202v-9.201h9.202z" fill="#C9DA53"/>
    <path d="M45.837 54.979a1.833 1.833 0 0 1-1.226-3.195l18.326-16.493a1.832 1.832 0 0 1 2.452 2.723L47.063 54.508c-.336.303-.773.47-1.226.47z" fill="#FFBF41"/>
    <path d="M98.982 47.648a1.833 1.833 0 0 1-1.833-1.833v-1.832a1.833 1.833 0 0 1 3.666 0v1.832c0 1.012-.82 1.833-1.833 1.833zM105.462 44.963a1.817 1.817 0 0 1-1.295-.537l-1.296-1.295a1.833 1.833 0 0 1 2.591-2.592l1.296 1.296a1.832 1.832 0 0 1-1.296 3.128zM108.146 38.485h-1.833a1.833 1.833 0 0 1 0-3.665h1.833a1.832 1.832 0 0 1 0 3.665zM104.167 33.302a1.833 1.833 0 0 1-1.296-3.128l1.296-1.296a1.832 1.832 0 0 1 2.591 2.592l-1.295 1.295c-.344.344-.81.537-1.296.537zM98.982 31.154a1.833 1.833 0 0 1-1.833-1.832v-1.833a1.833 1.833 0 0 1 3.666 0v1.833c0 1.012-.82 1.832-1.833 1.832zM93.798 33.302c-.486 0-.952-.193-1.296-.537l-1.295-1.295a1.833 1.833 0 0 1 2.591-2.592l1.296 1.296a1.833 1.833 0 0 1-1.296 3.128zM11.017 1.833l2.831 5.737 6.332.92-4.582 4.466 1.081 6.307-5.662-2.978-5.663 2.978 1.081-6.307L1.854 8.49l6.331-.92 2.832-5.737z" fill="#FFDB43"/>
    <path d="M109.399 99.266a12.719 12.719 0 0 0-5.619-7.406l-.755-1.132a27.654 27.654 0 0 0-18.401-11.9 1.833 1.833 0 0 0-.605 3.614 23.977 23.977 0 0 1 13.985 7.796 10.812 10.812 0 0 0-7.33 5.034 7.331 7.331 0 0 0 12.8 7.148 10.639 10.639 0 0 0 1.19-4.705 8.953 8.953 0 0 1 .401 9.517 1.833 1.833 0 1 0 3.2 1.785 12.745 12.745 0 0 0 1.134-9.751zm-9.121 1.365a3.665 3.665 0 0 1-6.418-3.542l.017-.03a6.868 6.868 0 0 1 4.963-3.229c.318-.008.634.065.916.213 1.547.863 1.629 4.605.522 6.588z" fill="#2BB3CE"/>
    <path d="M70.615 83.993a7.107 7.107 0 0 0 3.89-1.941c1.817-1.816 3.38-5.56.501-13.069a1.832 1.832 0 1 0-3.421 1.313c1.671 4.361 1.792 7.697.328 9.163-1.774 1.77-6.19 1.216-11.82-1.478a78.321 78.321 0 0 1-20.286-15.137C25.45 48.487 19.527 34.4 23.191 30.737a5.014 5.014 0 0 1 4.147-.968 1.833 1.833 0 1 0 .354-3.647 8.44 8.44 0 0 0-7.093 2.016c-6.712 6.722 3.55 24.233 16.624 37.3a81.958 81.958 0 0 0 21.293 15.85 36.132 36.132 0 0 0 4.422 1.768l-13.03 4.928a51.96 51.96 0 0 1-31.73-35.304c-.44-1.676-.799-3.39-1.068-5.094a1.833 1.833 0 1 0-3.62.568 55.26 55.26 0 0 0 1.144 5.457A55.624 55.624 0 0 0 44.96 89.857l-21.433 8.109a1.757 1.757 0 0 0-.366-.436 25.525 25.525 0 0 1-9.455-17.745l-.856-10.298a1.81 1.81 0 0 0-1.979-1.68 1.833 1.833 0 0 0-1.675 1.977l.858 10.301a29.21 29.21 0 0 0 9.696 19.307l-15.286 5.787 2.75-11.281a1.833 1.833 0 1 0-3.563-.869L.074 107.69a1.833 1.833 0 0 0 2.428 2.15L70.31 84.183a1.68 1.68 0 0 0 .306-.19z" fill="#000"/>
    <path d="m61.249 61.242-6.546 1.1a1.833 1.833 0 1 0 .603 3.614l6.546-1.09a56.647 56.647 0 0 1 29.162 2.833c.205.072.42.109.638.108a1.832 1.832 0 0 0 .643-3.55 60.352 60.352 0 0 0-31.046-3.015zM57.016 55.767a1.833 1.833 0 0 0 2.44.866l38.486-18.326a1.833 1.833 0 0 0-1.575-3.31L57.882 53.325a1.833 1.833 0 0 0-.867 2.442zM36.536 53.005a1.833 1.833 0 0 0 2.395-.986l2.665-6.387a54.892 54.892 0 0 0 2.932-33.194 1.833 1.833 0 1 0-3.577.795 51.25 51.25 0 0 1-2.734 30.988l-2.667 6.394c-.385.932.056 2 .986 2.39zM95.317 71.472a5.498 5.498 0 1 0 10.996 0 5.498 5.498 0 0 0-10.996 0zm7.331 0a1.833 1.833 0 1 1-3.666 0 1.833 1.833 0 0 1 3.666 0zM62.33 20.159a5.498 5.498 0 1 0-10.995 0 5.498 5.498 0 0 0 10.996 0zm-7.33 0a1.833 1.833 0 1 1 3.666 0 1.833 1.833 0 0 1-3.666 0zM40.34 7.33A3.665 3.665 0 1 0 40.338 0a3.665 3.665 0 0 0 0 7.33zM89.82 12.828a1.833 1.833 0 0 0 3.665 0v-1.832a1.833 1.833 0 0 0-3.666 0v1.832zM91.652 0c-1.012 0-1.833.82-1.833 1.833v1.832a1.833 1.833 0 0 0 3.666 0V1.833C93.485.82 92.664 0 91.652 0zM97.15 5.498h-1.833a1.833 1.833 0 0 0 0 3.665h1.833a1.833 1.833 0 0 0 0-3.665zM87.987 5.498h-1.833a1.833 1.833 0 0 0 0 3.665h1.833a1.833 1.833 0 0 0 0-3.665zM78.824 32.987c1.012 0 1.832-.82 1.832-1.832v-9.202c0-1.012-.82-1.833-1.832-1.833h-9.197c-1.011 0-1.832.82-1.832 1.833v9.202c0 1.012.82 1.832 1.832 1.832h9.197zm-7.37-9.201h5.537v5.536h-5.53l-.006-5.536zM44.478 54.372a1.833 1.833 0 0 0 2.59.136l18.326-16.494a1.833 1.833 0 0 0-2.452-2.723L44.616 51.784a1.833 1.833 0 0 0-.138 2.588zM100.816 45.815v-1.832a1.833 1.833 0 0 0-3.666 0v1.832a1.833 1.833 0 0 0 3.666 0zM102.875 43.13l1.295 1.296a1.833 1.833 0 0 0 2.592-2.59l-1.296-1.297a1.832 1.832 0 0 0-2.591 2.592zM108.146 34.82h-1.833a1.833 1.833 0 0 0 0 3.665h1.833a1.832 1.832 0 0 0 0-3.665zM104.17 33.302c.486 0 .952-.193 1.296-.537l1.295-1.295a1.832 1.832 0 0 0-2.591-2.592l-1.296 1.296a1.833 1.833 0 0 0 1.296 3.128zM98.983 25.657c-1.012 0-1.833.82-1.833 1.832v1.833a1.833 1.833 0 0 0 3.666 0v-1.833c0-1.012-.82-1.832-1.833-1.832zM93.804 28.878a1.833 1.833 0 0 0-2.591 2.592l1.295 1.295a1.832 1.832 0 0 0 2.592-2.591l-1.296-1.296zM21.928 7.924a1.832 1.832 0 0 0-1.48-1.246l-5.378-.782-2.404-4.873a1.908 1.908 0 0 0-3.288 0L6.974 5.896l-5.379.782A1.833 1.833 0 0 0 .58 9.803l3.89 3.793-.916 5.357a1.832 1.832 0 0 0 2.658 1.939l4.805-2.536 4.81 2.529a1.833 1.833 0 0 0 2.66-1.932l-.917-5.357 3.893-3.793c.5-.487.68-1.215.465-1.879zm-7.603 3.72a1.832 1.832 0 0 0-.528 1.62l.454 2.649-2.377-1.252a1.832 1.832 0 0 0-1.706 0l-2.382 1.25.456-2.648a1.833 1.833 0 0 0-.524-1.618L5.798 9.77l2.653-.387a1.833 1.833 0 0 0 1.382-1.002l1.184-2.407 1.187 2.407c.267.54.782.915 1.378 1.002l2.656.387-1.913 1.875zM103.786 91.86l-.755-1.133a27.672 27.672 0 0 0-18.403-11.899 1.832 1.832 0 1 0-.603 3.614 23.969 23.969 0 0 1 13.983 7.796 10.827 10.827 0 0 0-7.33 5.034 7.331 7.331 0 1 0 12.802 7.147 10.658 10.658 0 0 0 1.184-4.704 9.193 9.193 0 0 1 1.215 2.551 9.115 9.115 0 0 1-.814 6.964 1.832 1.832 0 0 0 3.153 1.87l.047-.085c3.352-5.994 1.377-13.565-4.477-17.157l-.002.002zm-3.502 8.771a3.665 3.665 0 0 1-6.728-.786 3.634 3.634 0 0 1 .327-2.786 6.864 6.864 0 0 1 4.963-3.229c.318-.008.634.065.916.213 1.545.863 1.627 4.605.522 6.588z" fill="#000"/>
</svg>
