<svg width="100" height="100" fill="none" xmlns="http://www.w3.org/2000/svg">
    <path d="M1.513 17.876C.91 8.998 7.944 1.465 16.837 1.465h66.324c8.893 0 15.927 7.533 15.324 16.411l-4.5 66.33c-.548 8.066-7.246 14.33-15.325 14.33H21.338c-8.08 0-14.777-6.264-15.325-14.33l-4.5-66.33z" fill="#CBF5A9"/>
    <path d="M83.161 1.465h-6.445c8.893 0 15.927 7.533 15.325 16.411l-4.501 66.33c-.547 8.066-7.246 14.33-15.325 14.33h6.446c8.079 0 14.777-6.264 15.324-14.33l4.5-66.33c.603-8.878-6.431-16.411-15.324-16.411z" fill="#B2E38A"/>
    <path d="M27.929 34.082c0-12.189 9.881-22.07 22.07-22.07 12.19 0 22.07 9.881 22.07 22.07H27.93z" fill="#F4F4FF"/>
    <path d="M14.745 18.262a3.711 3.711 0 1 0 0-7.422 3.711 3.711 0 0 0 0 7.422zM85.253 18.262a3.711 3.711 0 1 0 0-7.422 3.711 3.711 0 0 0 0 7.422zM19.237 88.379a3.71 3.71 0 1 0 0-7.422 3.71 3.71 0 0 0 0 7.422zM80.76 88.379a3.711 3.711 0 1 0 0-7.422 3.711 3.711 0 0 0 0 7.422z" fill="#5E6478"/>
    <path d="M95.45 5.337C92.234 1.896 87.87 0 83.161 0H16.837C7.219 0-.6 8.383.051 17.975l2.935 43.257c.128 1.884 3.051 1.687 2.923-.198L2.974 17.777C2.436 9.853 8.894 2.93 16.837 2.93h66.324c7.942 0 14.4 6.923 13.863 14.847l-4.5 66.33C92.03 91.377 85.94 97.07 78.66 97.07H21.338c-7.28 0-13.37-5.694-13.863-12.963L6.453 69.041c-.128-1.884-3.051-1.686-2.923.199l1.022 15.066c.597 8.8 7.97 15.694 16.786 15.694H78.66c8.816 0 16.189-6.894 16.786-15.695l4.5-66.33c.32-4.705-1.277-9.193-4.496-12.638z" fill="#000"/>
    <path d="M64.745 34.082c0 .809.656 1.465 1.465 1.465h5.86c.808 0 1.464-.656 1.464-1.465 0-12.977-10.558-23.535-23.535-23.535S26.464 21.105 26.464 34.082c0 .809.656 1.465 1.465 1.465h30.273c1.89 0 1.89-2.93 0-2.93h-7.095l-6.373-11.36c-.925-1.649-3.48-.215-2.556 1.432l5.57 9.928H29.445a20.515 20.515 0 0 1 4.834-11.842l2.01 2.01c1.336 1.337 3.408-.735 2.072-2.07l-2.035-2.035a20.622 20.622 0 0 1 6.733-4l.732 2.729c.487 1.819 3.319 1.068 2.83-.758l-.74-2.76c2.57-.523 5.236-.55 7.816-.08l-.722 2.692c-.489 1.826 2.343 2.577 2.83.759l.73-2.722a20.6 20.6 0 0 1 6.785 3.834l-1.938 1.938c-1.336 1.335.736 3.407 2.072 2.071l1.96-1.96a20.525 20.525 0 0 1 5.139 12.194H66.21c-.809 0-1.465.656-1.465 1.465zM14.745 9.375a5.182 5.182 0 0 0-5.176 5.176 5.182 5.182 0 0 0 5.176 5.176 5.182 5.182 0 0 0 5.176-5.176 5.182 5.182 0 0 0-5.176-5.176zm0 7.422A2.249 2.249 0 0 1 12.5 14.55a2.249 2.249 0 0 1 2.246-2.246 2.249 2.249 0 0 1 2.246 2.246 2.249 2.249 0 0 1-2.246 2.246zM85.253 19.727a5.182 5.182 0 0 0 5.176-5.176 5.182 5.182 0 0 0-5.176-5.176 5.182 5.182 0 0 0-5.176 5.176 5.182 5.182 0 0 0 5.176 5.176zm0-7.422a2.249 2.249 0 0 1 2.246 2.246 2.249 2.249 0 0 1-2.246 2.246 2.249 2.249 0 0 1-2.246-2.246 2.249 2.249 0 0 1 2.246-2.246zM14.062 84.668a5.182 5.182 0 0 0 5.175 5.176 5.182 5.182 0 0 0 5.176-5.176 5.182 5.182 0 0 0-5.176-5.176 5.182 5.182 0 0 0-5.175 5.176zm5.175-2.246a2.249 2.249 0 0 1 2.246 2.246 2.249 2.249 0 0 1-2.246 2.246 2.249 2.249 0 0 1-2.246-2.246 2.249 2.249 0 0 1 2.246-2.246zM75.585 84.668a5.182 5.182 0 0 0 5.176 5.176 5.182 5.182 0 0 0 5.175-5.176 5.182 5.182 0 0 0-5.175-5.176 5.182 5.182 0 0 0-5.176 5.176zm5.176-2.246a2.249 2.249 0 0 1 2.246 2.246 2.249 2.249 0 0 1-2.246 2.246 2.249 2.249 0 0 1-2.246-2.246 2.249 2.249 0 0 1 2.246-2.246z" fill="#000"/>
</svg>
