<svg width="100" height="100" viewBox="0 0 100 100" fill="none" xmlns="http://www.w3.org/2000/svg">
    <g clip-path="url(#eojn3w6fha)">
        <path d="m97.17 73.515-3.045-4.096c.029-.27 3.142-8.599-.482-15.83-.577-1.152-1.03-2.365-1.248-3.635-1.51-8.82 2.958-20.756 3.044-21.026 1.558-4.924 2.176-6.89-1.588-8.7-4.097-1.97-7.736.306-9.862 4.168-.288.525-4.565 8.46-5.545 18.77L52.043 7.658c-1.87-2.515-5.365-3.29-8.038-1.653a6.025 6.025 0 0 0-1.704 8.741l-3.079-4.14c-1.962-2.64-5.691-3.336-8.38-1.443a6.024 6.024 0 0 0-1.369 8.522l3.16 4.25a6.024 6.024 0 0 0-8.776-.961c-2.406 2.073-2.713 5.699-.818 8.248l5.837 7.85a6.025 6.025 0 0 0-8.862-.886c-2.336 2.088-2.601 5.66-.732 8.173l28.71 38.615a22.34 22.34 0 0 0 11.6 8.118c4.221 1.254 5.943 4.585 6.436 5.106l.203.273a5.125 5.125 0 0 0 7.17 1.054l22.722-16.893a5.086 5.086 0 0 0 1.047-7.117z" fill="#F4D44E"/>
        <path d="M76.607 16.381a44.307 44.307 0 0 0-10.282-13.83A1.465 1.465 0 0 1 68.29.38a47.237 47.237 0 0 1 10.963 14.745 1.465 1.465 0 0 1-2.647 1.257zM68.395 18.671a35.943 35.943 0 0 0-6.628-8.914 1.465 1.465 0 0 1 2.052-2.091 38.876 38.876 0 0 1 7.17 9.642 1.465 1.465 0 0 1-2.594 1.363zM12.933 64.435A47.237 47.237 0 0 1 1.969 49.69a1.465 1.465 0 0 1 2.647-1.257 44.305 44.305 0 0 0 10.282 13.83 1.465 1.465 0 1 1-1.965 2.172zM17.404 57.149a38.88 38.88 0 0 1-7.17-9.643 1.465 1.465 0 0 1 2.594-1.364 35.934 35.934 0 0 0 6.629 8.916 1.465 1.465 0 0 1-2.053 2.09z" fill="#EAE9E8"/>
        <path d="m29.735 18.035 19.197 25.82a2.798 2.798 0 0 0 4.07.452 2.812 2.812 0 0 0 .423-3.81L37.77 19.442l-.018-.026-.022-.028-.022-.03-.017-.023-3.03-4.076a6.025 6.025 0 0 1-.026-7.153c-4.803-.312-8.469 5.128-4.9 9.929zM40.255 52.375a2.903 2.903 0 0 0 4.329.371 2.68 2.68 0 0 0 .304-3.54l-16.661-22.41c-1.627-2.188-1.63-5.169-.076-7.28-5.12-.302-8.213 5.534-5.11 9.705 7.782 10.469 9.114 12.26 17.214 23.154zM71.418 94.045l-.202-.273c-.493-.521-2.215-3.852-6.436-5.106a22.34 22.34 0 0 1-11.6-8.118L24.47 41.934c-1.625-2.185-1.636-5.167-.08-7.281-5.104-.298-8.224 5.514-5.107 9.706l28.71 38.614a22.34 22.34 0 0 0 11.6 8.118c4.221 1.254 5.943 4.585 6.436 5.107l.203.273a5.125 5.125 0 0 0 7.17 1.054l1.908-1.418a5.114 5.114 0 0 1-3.892-2.062zM47.489 12.32s-.003-.003 0 0a6.025 6.025 0 0 1-.019-7.162 5.872 5.872 0 0 0-3.118.654V5.81c-.511.267-.974.603-1.37.98l-.002.001a6.025 6.025 0 0 0-.87 7.68l.192.274 17.337 23.319a2.824 2.824 0 0 0 4.216.358 3.078 3.078 0 0 0 .328-4.087L47.489 12.32zm-1.663-2.236-.092-.123.091.123zM83.99 24.396c-.18.327-1.913 3.544-3.429 8.42h-.001c-.913 2.936-1.747 6.475-2.116 10.35 1.607 2.136 5.005 1.097 5.143-1.573l.044-.853c.98-10.31 5.256-18.245 5.545-18.77a12.004 12.004 0 0 1 1.774-2.463c-2.88-.042-5.353 1.97-6.96 4.89z" fill="#E8C842"/>
        <path d="M75.875 16.381a1.465 1.465 0 0 0 2.647-1.257A47.239 47.239 0 0 0 67.558.378a1.466 1.466 0 0 0-1.966 2.174A44.305 44.305 0 0 1 75.876 16.38zM61.015 7.685a1.465 1.465 0 0 0 .02 2.071 35.936 35.936 0 0 1 6.628 8.915 1.465 1.465 0 1 0 2.594-1.363 38.877 38.877 0 0 0-7.17-9.642 1.466 1.466 0 0 0-2.072.019zM3.883 48.433a1.465 1.465 0 0 0-2.646 1.257A47.239 47.239 0 0 0 12.2 64.435c.28.254.632.379.982.379 1.33 0 1.981-1.65.983-2.552A44.335 44.335 0 0 1 3.883 48.433zM12.096 46.143a1.465 1.465 0 0 0-2.593 1.363 38.883 38.883 0 0 0 7.169 9.643 1.465 1.465 0 0 0 2.052-2.091 35.95 35.95 0 0 1-6.628-8.915z" fill="#000"/>
        <path d="M56.607 14.782c-.65.482-.785 1.4-.302 2.05l20.23 27.208c.8 1.075 2.508.597 2.634-.735.96-10.095 5.19-17.876 5.37-18.202.753-1.369 3.551-5.668 7.944-3.555 2.774 1.335 2.267 2.11.804 6.996-1.073 3.017-4.468 13.494-3.07 21.658.671 3.916 2.235 4.145 2.846 9.248.244 2.043.17 4.127-.22 6.218-.095.461-.628 2.646-2.654 5.08a1.465 1.465 0 0 0 2.252 1.875c.28-.335.534-.666.769-.993l2.051 2.759a3.625 3.625 0 0 1-.745 5.067l-3.082 2.291c-1.132.842-.53 2.64.875 2.64.828 0 .963-.465 3.956-2.58a6.559 6.559 0 0 0 1.348-9.166l-2.611-3.512c.372-1.428 1.568-5.03.97-10.027-.649-5.424-2.332-6.272-2.866-9.395-1.312-7.655 2.22-18.154 2.942-20.18l.054-.158c1.543-4.876 2.562-8.098-2.35-10.461-4.393-2.114-9.017-.237-11.78 4.781-.168.308-3.712 6.823-5.235 15.711l-18.08-24.317a1.464 1.464 0 0 0-2.05-.301zM87.99 86.135a1.464 1.464 0 0 0-2.05-.302L71.796 96.35a3.664 3.664 0 0 1-5.12-.753c-.586-.616-2.552-4.47-7.398-5.91-8.709-2.587-11.643-9.114-13.296-10.888a1.465 1.465 0 1 0-2.35 1.748c1.545 1.646 5.029 9.043 14.812 11.949 3.76 1.117 5.25 4.173 5.88 4.849 2.164 2.91 6.3 3.527 9.22 1.356l14.144-10.516c.649-.483.784-1.401.301-2.05z" fill="#000"/>
        <path d="M39.187 9.15c-4.24-4.666-12.004-2.498-13.006 3.755a7.424 7.424 0 0 0 1.031 5.135c-6.205-.134-9.85 6.987-6.08 12.056l2.291 3.082c-6.319-.067-9.745 7.084-6.049 12.055l22.17 29.818c.288.387.73.591 1.177.591 1.186 0 1.9-1.364 1.175-2.339l-22.17-29.818c-2.417-3.25.075-7.757 4.042-7.355 2.172.22 3.179 1.798 3.202 1.818l13.33 17.93c.288.386.73.59 1.177.59 1.19 0 1.898-1.366 1.175-2.339l-19.17-25.781c-1.46-1.965-1.198-4.717.599-6.265a4.556 4.556 0 0 1 6.644.725l18.09 24.33a1.462 1.462 0 0 0 2.05.302c.649-.482.784-1.4.301-2.05l-21.25-28.58a4.556 4.556 0 0 1 1.037-6.449c2.001-1.409 4.854-.907 6.36 1.119.396.531 22.11 29.735 22.322 30.022a1.465 1.465 0 0 0 2.352-1.748L42.745 13.872a4.559 4.559 0 0 1 1.293-6.618c1.984-1.214 4.662-.653 6.097 1.278l2.085 2.804a1.465 1.465 0 1 0 2.351-1.748l-2.085-2.804C48.76 1.77 40.875 3.084 39.187 9.15z" fill="#000"/>
    </g>
    <defs>
        <clipPath id="eojn3w6fha">
            <path fill="#fff" d="M0 0h100v100H0z"/>
        </clipPath>
    </defs>
</svg>
