<svg width="100" height="100" fill="none" xmlns="http://www.w3.org/2000/svg">
    <path d="M97.913 6.65 61.348 33.085l-6 4.348a9.001 9.001 0 0 1-10.696 0l-6-4.348L2.044 6.694a10.802 10.802 0 0 1 8.826-4.522h78.26c3.475 0 6.74 1.665 8.783 4.478z" fill="#FFD54F"/>
    <path d="m2.044 6.694 36.608 26.391L3.174 68.564A10.87 10.87 0 0 1 0 60.868V13.042a10.724 10.724 0 0 1 2.044-6.348zM100 13.041v47.827a10.872 10.872 0 0 1-3.174 7.695L61.348 33.085 97.913 6.65A10.815 10.815 0 0 1 100 13.041z" fill="#FFC107"/>
    <path d="M65.217 80.433c-2.886 0-4.347-2.174-4.347-6.522.07-6.074-4.796-11.057-10.87-11.126-6.074-.07-11.056 4.795-11.126 10.87-.07 6.073 4.795 11.056 10.87 11.125 3.256.04 6.36-1.37 8.478-3.839a7.749 7.749 0 0 0 6.995 3.84c8.696 0 8.696-8.183 8.696-10.87 0-13.209-10.704-23.913-23.913-23.913S26.087 60.702 26.087 73.907C26.087 87.11 36.79 97.82 50 97.82a23.92 23.92 0 0 0 16.626-6.726c.865-.84.883-2.222.044-3.083a2.183 2.183 0 0 0-3.087-.044c-7.779 7.5-20.165 7.279-27.665-.5-7.5-7.778-7.279-20.165.5-27.665 7.778-7.5 20.165-7.278 27.665.5a19.575 19.575 0 0 1 5.482 13.604c0 4.879-1.095 6.527-4.348 6.527zm-15.217 0a6.524 6.524 0 0 1-6.522-6.522A6.521 6.521 0 1 1 50 80.433z" fill="#455A64"/>
    <path d="m61.348 33.085-6 4.348a9.001 9.001 0 0 1-10.696 0l-6-4.348L3.174 68.563a10.87 10.87 0 0 0 7.696 3.174h10.978c1.178-15.548 14.735-27.196 30.278-26.022 13.914 1.052 24.97 12.109 26.022 26.022h10.983a10.871 10.871 0 0 0 7.695-3.174L61.348 33.085z" fill="#FFA000"/>
    <path d="M89.13 71.737h-8.695a2.175 2.175 0 0 1 0-4.347h8.695a6.53 6.53 0 0 0 6.522-6.522V13.04A6.53 6.53 0 0 0 89.13 6.52H10.87a6.527 6.527 0 0 0-6.522 6.521v47.827a6.53 6.53 0 0 0 6.522 6.521h8.695c1.2 0 2.174.97 2.174 2.174a2.172 2.172 0 0 1-2.174 2.174H10.87C4.878 71.737 0 66.859 0 60.867V13.041C0 7.05 4.878 2.171 10.87 2.171h78.26c5.996 0 10.87 4.875 10.87 10.87v47.827c0 5.99-4.874 10.87-10.87 10.87z" fill="#000"/>
    <path d="M50.005 41.367c-2.327 0-4.653-.726-6.64-2.178L9.6 14.802a2.168 2.168 0 0 1-.491-3.034 2.167 2.167 0 0 1 3.035-.492l33.782 24.396a6.87 6.87 0 0 0 8.144.009l33.787-24.405c.974-.7 2.33-.486 3.034.487a2.175 2.175 0 0 1-.487 3.035L56.623 39.194a11.174 11.174 0 0 1-6.617 2.173zM10.87 63.041a2.184 2.184 0 0 1-1.54-.634 2.175 2.175 0 0 1 0-3.074l21.74-21.74a2.175 2.175 0 0 1 3.074 0 2.175 2.175 0 0 1 0 3.075l-21.74 21.739a2.167 2.167 0 0 1-1.534.634zM89.13 63.041a2.184 2.184 0 0 1-1.538-.634l-21.74-21.74a2.175 2.175 0 0 1 0-3.074 2.175 2.175 0 0 1 3.074 0l21.74 21.74a2.175 2.175 0 0 1 0 3.073 2.165 2.165 0 0 1-1.535.635zM50.013 97.828c-.135 0-.27 0-.404-.004-6.387-.104-12.348-2.691-16.791-7.282-9.17-9.479-8.918-24.644.556-33.81a23.908 23.908 0 0 1 17.022-6.725c6.382.104 12.348 2.69 16.791 7.278a23.802 23.802 0 0 1 6.726 16.626 2.175 2.175 0 0 1-4.347 0c0-5.104-1.957-9.935-5.51-13.604a19.456 19.456 0 0 0-13.738-5.957c-5.122 0-10.17 1.874-13.926 5.509-7.753 7.5-7.957 19.909-.453 27.661a19.42 19.42 0 0 0 13.74 5.956c5.243.183 10.165-1.87 13.926-5.504a2.176 2.176 0 0 1 3.073.052 2.172 2.172 0 0 1-.052 3.074c-4.491 4.348-10.374 6.73-16.613 6.73z" fill="#000"/>
    <path d="M50 84.78c-5.991 0-10.87-4.878-10.87-10.87 0-5.99 4.879-10.869 10.87-10.869s10.87 4.874 10.87 10.87c0 5.996-4.879 10.87-10.87 10.87zm0-17.39a6.53 6.53 0 0 0-6.522 6.52A6.53 6.53 0 0 0 50 80.434a6.53 6.53 0 0 0 6.522-6.522A6.53 6.53 0 0 0 50 67.389z" fill="#000"/>
    <path d="M65.217 84.78c-5.443 0-8.695-4.065-8.695-10.87a2.175 2.175 0 0 1 4.347 0c0 4.327 1.465 6.523 4.348 6.523 3.252 0 4.348-1.648 4.348-6.522a2.175 2.175 0 0 1 4.347 0c0 2.687 0 10.87-8.695 10.87z" fill="#000"/>
</svg>
