<svg width="100" height="100" fill="none" xmlns="http://www.w3.org/2000/svg">
    <path d="M82.08 88.489v8.178c0 .92-.746 1.666-1.667 1.666H19.588c-.921 0-1.667-.745-1.667-1.666V88.49c0-8.58 6.956-15.531 15.538-15.533a8.625 8.625 0 0 0 7.24-3.93c1.545-2.373 1.386-4.436 1.386-6.104l.03-.078c-7.477-3.095-12.737-10.463-12.737-19.06v-.652c-2.97 0-5.208-2.346-5.208-5.111v-8.658c-.066-3.014.071-13.644 7.75-21.045 8.927-8.605 23.075-7.9 33.324-3.297a.418.418 0 0 1-.014.766l-2.673 1.1c-.4.165-.315.754.114.8l1.298.14c6.214.664 11.986 4.039 15.565 9.655a.447.447 0 0 1-.054.514 12.603 12.603 0 0 0-3.442 8.657v11.368a5.113 5.113 0 0 1-5.111 5.111h-.304v.652c0 8.597-5.26 15.965-12.738 19.06l.03.078c0 1.62-.171 3.712 1.386 6.105a8.625 8.625 0 0 0 7.24 3.929c8.583.002 15.538 6.953 15.538 15.533z" fill="#FFDFBA"/>
    <path d="M82.08 88.489v8.178c0 .92-.747 1.667-1.667 1.667H19.588c-.92 0-1.667-.747-1.667-1.667V88.49c0-8.58 6.957-15.53 15.537-15.533a8.625 8.625 0 0 0 7.241-3.929 14.299 14.299 0 0 0 18.602 0 8.625 8.625 0 0 0 7.242 3.929c8.58.003 15.536 6.953 15.536 15.533z" fill="#FE4F60"/>
    <path d="M79.533 17.483a.442.442 0 0 1-.054.512 12.61 12.61 0 0 0-3.44 8.658v11.368c0 2.58-1.945 5.111-5.417 5.111V30.265c0-5.522-4.476-9.998-9.998-9.998H39.376c-5.522 0-9.998 4.476-9.998 9.998v12.867c-2.97 0-5.208-2.346-5.208-5.111v-8.658c-.067-3.014.07-13.644 7.75-21.045 8.927-8.605 23.076-7.9 33.323-3.297a.417.417 0 0 1-.013.767l-2.673 1.1c-.4.164-.315.753.114.8l1.298.139c6.215.664 11.986 4.038 15.564 9.656z" fill="#42434D"/>
    <path d="M70.622 43.785c0 11.393-9.238 20.622-20.622 20.622-10.726 0-20.622-8.339-20.622-21.274V30.264c0-5.522 4.476-9.998 9.998-9.998h21.248c5.522 0 9.998 4.476 9.998 9.998v13.52z" fill="#FFEBD2"/>
    <path d="M45.33 57.101c3.391 2.121.718 7.323-2.994 5.834-7.631-3.063-12.958-10.5-12.958-19.15v-13.52c0-2.1.648-4.05 1.754-5.659 1.357-1.973 4.495-1.101 4.495 1.493v13.52c0 7.605 3.998 13.912 9.704 17.482z" fill="#FFF3E4"/>
    <path d="M58.15 66.342c-5.131 2.148-10.771 2.315-16.301 0 .282-1.172.235-1.931.235-3.42l.031-.078a20.665 20.665 0 0 0 15.77 0l.03.077c0 1.49-.047 2.25.236 3.42z" fill="#FFD6A6"/>
    <path d="M41.851 77.988a8.475 8.475 0 0 1-2.482.383c-8.602.076-15.616 6.878-15.616 15.48v1.566a2.916 2.916 0 0 1-2.916 2.917h-1.25c-.92 0-1.666-.747-1.666-1.667V88.49c0-8.58 6.956-15.53 15.536-15.533a8.625 8.625 0 0 0 7.242-3.929 14.42 14.42 0 0 0 1.981 1.421c3.074 1.831 2.584 6.467-.829 7.54z" fill="#FF6D7A"/>
    <path d="M58.148 77.988c.77.242 1.597.376 2.483.383 8.602.076 15.616 6.878 15.616 15.48v1.566a2.916 2.916 0 0 0 2.916 2.917h1.25c.92 0 1.666-.747 1.666-1.667V88.49c0-8.58-6.956-15.53-15.536-15.533a8.625 8.625 0 0 1-7.242-3.929 14.42 14.42 0 0 1-1.982 1.421c-3.073 1.831-2.583 6.467.83 7.54z" fill="#E84857"/>
    <path d="M65.23 5.787c-2.45 1.008-2.8 1.23-3.648 1.099-13.68-2.12-25.683 3.54-29.759 16.828v.002a9.95 9.95 0 0 0-2.445 6.55v7.816c0 3.372-5.208 3.606-5.208-.061v-8.658c-.067-3.014.07-13.644 7.75-21.045 8.927-8.605 23.075-7.9 33.324-3.297a.418.418 0 0 1-.015.766z" fill="#4D4E59"/>
    <path d="M83.746 88.49v9.844a1.667 1.667 0 0 1-3.333 0V88.49c0-7.665-6.202-13.868-13.868-13.867a10.232 10.232 0 0 1-8.802-4.943 1.666 1.666 0 1 1 2.846-1.734 6.923 6.923 0 0 0 5.956 3.344c9.507 0 17.2 7.692 17.2 17.2zm-29.08-16.705c.195.9-.375 1.787-1.274 1.983a15.95 15.95 0 0 1-12.398-2.425c-3.516 3.767-8.16 3.28-7.539 3.28-7.664 0-13.867 6.201-13.867 13.867v9.844a1.667 1.667 0 0 1-3.333 0V88.49c0-9.507 7.692-17.2 17.2-17.2 3.846 0 6.963-3.099 6.963-6.946v-.439c-7.273-3.478-12.379-10.787-12.69-19.298-2.994-.72-5.224-3.399-5.224-6.586v-8.64c-.091-4.228.537-14.819 8.259-22.263 9.535-9.191 24.826-8.607 36.07-3.195 1.096.528 1.263 2.01.353 2.776A22.492 22.492 0 0 1 80.949 16.6c.163.258.462.664.384 1.31-.049.402-.168.743-.478 1.057a10.88 10.88 0 0 0-3.15 7.686V38.02a1.667 1.667 0 0 1-3.333 0V26.654c0-3.34 1.142-6.512 3.238-9.059-3.195-4.57-8.18-7.508-13.818-8.112l-2.929-.313c-1.712-.184-2.048-2.543-.457-3.198l1.333-.549c-17.35-6.048-35.902.672-35.902 23.94v8.658a3.44 3.44 0 0 0 1.875 3.048V30.266c0-6.432 5.233-11.665 11.665-11.665h21.247c6.432 0 11.665 5.233 11.665 11.664V43.91c0 14.493-14.162 25.5-28.573 21.258a10.191 10.191 0 0 1-.872 3.403 12.62 12.62 0 0 0 9.838 1.94c.9-.195 1.787.375 1.983 1.274zM50 62.739c10.453 0 18.956-8.503 18.956-18.956V30.265c0-4.594-3.738-8.331-8.332-8.331H39.377c-4.595 0-8.333 3.738-8.333 8.332v13.517c0 10.453 8.504 18.956 18.956 18.956zm16.873 28.72h-5a1.667 1.667 0 0 0 0 3.333h5a1.667 1.667 0 0 0 0-3.333z" fill="#000"/>
</svg>
