<svg width="100" height="100" fill="none" xmlns="http://www.w3.org/2000/svg">
    <g clip-path="url(#a)">
        <path d="M78.851 21.031V7.202c0-1.385-1.116-2.52-2.48-2.52H11.4c-1.364 0-2.48 1.135-2.48 2.52v13.83H78.85z" fill="#F4B537"/>
        <path d="M17.26 4.682H11.4c-1.364 0-2.48 1.135-2.48 2.52v13.83h5.86V7.201c0-1.385 1.115-2.52 2.48-2.52z" fill="#EAA01C"/>
        <path d="m64.812 21.031 14.04-13.829c0-1.385-1.117-2.52-2.48-2.52H11.4c-1.364 0-2.48 1.135-2.48 2.52l14.04 13.83h41.852z" fill="#FECA57"/>
        <path d="m8.92 7.202 5.86 5.773V7.202c0-1.385 1.116-2.52 2.48-2.52H11.4c-1.364 0-2.48 1.135-2.48 2.52z" fill="#F4B537"/>
        <path d="M63.28 78.22c0-9.694 7.86-17.552 17.553-17.552 1.967 0 3.858.324 5.624.92v-37.8a3.028 3.028 0 0 0-3.02-3.02H4.335a3.028 3.028 0 0 0-3.02 3.02v52.544a3.028 3.028 0 0 0 3.02 3.02h58.984a17.94 17.94 0 0 1-.037-1.132z" fill="#FECA57"/>
        <path d="M7.174 76.332V23.788a3.027 3.027 0 0 1 3.019-3.018h-5.86a3.028 3.028 0 0 0-3.018 3.018v52.544a3.028 3.028 0 0 0 3.019 3.02h5.859a3.028 3.028 0 0 1-3.019-3.02z" fill="#F4B537"/>
        <path d="M63.28 78.22c0-6.668 3.72-12.468 9.196-15.438L59.349 50.06l-6.41 6.215c-5.045 4.89-13.062 4.89-18.106 0l-6.412-6.215L1.315 76.332a3.028 3.028 0 0 0 3.019 3.02h58.984a17.94 17.94 0 0 1-.037-1.132z" fill="#F4B537"/>
        <path d="m32.503 54.015-4.081-3.955L1.315 76.332a3.028 3.028 0 0 0 3.019 3.02h2.028l26.141-25.337z" fill="#EAA01C"/>
        <path d="M83.438 20.77H4.334a3.028 3.028 0 0 0-3.02 3.018l33.519 32.877c5.044 4.89 13.06 4.89 18.105 0l33.519-32.877a3.027 3.027 0 0 0-3.02-3.018z" fill="#FCD486"/>
        <path d="m1.315 23.788 5.86 5.748v-5.748a3.027 3.027 0 0 1 3.018-3.018h-5.86a3.028 3.028 0 0 0-3.018 3.018z" fill="#FECA57"/>
        <path d="M98.385 78.115c0 9.752-7.906 17.657-17.658 17.657-9.75 0-17.656-7.905-17.656-17.657 0-9.752 7.905-17.657 17.656-17.657 9.752 0 17.658 7.905 17.658 17.657z" fill="#1DD1A1"/>
        <path d="M68.93 78.115c0-8.753 6.37-16.018 14.727-17.413a17.73 17.73 0 0 0-2.93-.244c-9.75 0-17.656 7.905-17.656 17.657 0 9.751 7.905 17.657 17.656 17.657.999 0 1.977-.084 2.93-.244-8.356-1.395-14.727-8.66-14.727-17.413z" fill="#15BA8B"/>
        <path d="M87.876 60.482V49.047a1.465 1.465 0 1 0-2.93 0v10.52a19.387 19.387 0 0 0-4.158-.456c-2.754 0-5.507.59-8.083 1.805L61.41 49.968l23.537-22.813v15.056a1.465 1.465 0 1 0 2.93 0V23.696a4.489 4.489 0 0 0-4.484-4.484H80.27V7.07a3.949 3.949 0 0 0-3.944-3.945H11.355A3.95 3.95 0 0 0 7.41 7.07v12.142H4.288a4.489 4.489 0 0 0-4.483 4.483V76.24a4.489 4.489 0 0 0 4.483 4.484h36.134a1.465 1.465 0 1 0 0-2.93H4.288A1.56 1.56 0 0 1 2.83 76.77l25.548-24.76 5.392 5.225c5.64 5.468 14.555 5.417 20.144 0l5.392-5.226 10.75 10.418a19.022 19.022 0 0 0-8.281 15.368H47.259a1.465 1.465 0 1 0 0 2.93h14.69c1.27 9.262 9.233 16.42 18.839 16.42 10.486 0 19.017-8.53 19.017-19.016 0-7.982-4.943-14.83-11.929-17.646zM11.355 6.055h64.972c.328 0 .68.175.88.525L64.173 19.212H23.508L10.475 6.58a1.02 1.02 0 0 1 .88-.525zm65.987 4.475v8.682h-8.959l8.959-8.682zm-67.002 0 8.958 8.682H10.34V10.53zM2.734 72.78V27.156l23.538 22.812L2.734 72.78zm49.14-17.65a11.49 11.49 0 0 1-16.066 0L2.829 23.166a1.561 1.561 0 0 1 1.46-1.026h79.103c.632 0 1.231.395 1.46 1.026L51.874 55.129zm28.914 39.084c-8.553 0-15.685-6.741-16.07-15.39-.392-9.196 6.98-16.784 16.07-16.784 8.86 0 16.087 7.209 16.087 16.088 0 8.87-7.216 16.086-16.087 16.086z" fill="#020202"/>
        <path d="m87.547 72.725-8.493 8.493-4.301-4.301a1.466 1.466 0 0 0-2.071 2.072l5.336 5.337c.573.572 1.5.572 2.073 0l9.529-9.529c.571-.572.571-1.5 0-2.072a1.467 1.467 0 0 0-2.073 0z" fill="#020202"/>
    </g>
    <defs>
        <clipPath id="a">
            <path fill="#fff" d="M0 0h100v100H0z"/>
        </clipPath>
    </defs>
</svg>
