<svg width="100" height="100" fill="none" xmlns="http://www.w3.org/2000/svg">
    <path d="M85.417 37.5h-6.25v-8.333C79.167 13.084 66.083 0 50 0 33.917 0 20.833 13.084 20.833 29.167V37.5h-6.25a2.082 2.082 0 0 0-2.083 2.083v52.084c0 4.596 3.737 8.333 8.333 8.333h58.334c4.596 0 8.333-3.737 8.333-8.333V39.583a2.082 2.082 0 0 0-2.083-2.083zm-18.75 0H33.333v-8.333C33.333 19.977 40.81 12.5 50 12.5c9.19 0 16.667 7.477 16.667 16.667V37.5z" fill="#303C42"/>
    <path d="M25 29.167c0-13.786 11.214-25 25-25s25 11.214 25 25V37.5h-4.167v-8.333C70.833 17.68 61.487 8.333 50 8.333c-11.487 0-20.833 9.347-20.833 20.834V37.5H25v-8.333z" fill="#F2F2F2"/>
    <path d="M83.333 91.667a4.172 4.172 0 0 1-4.166 4.166H20.833a4.172 4.172 0 0 1-4.166-4.166v-50h66.666v50z" fill="#FFCA28"/>
    <path opacity=".2" d="M25 91.667v-50h-8.333v50a4.172 4.172 0 0 0 4.166 4.166h7.292c-1.723 0-3.125-1.87-3.125-4.166z" fill="#fff"/>
    <path opacity=".1" d="M75 41.667v50c0 2.296-1.402 4.166-3.125 4.166h7.292a4.172 4.172 0 0 0 4.166-4.166v-50H75z" fill="#000"/>
    <path d="M45.077 69.202 43.762 81.02a2.084 2.084 0 0 0 2.071 2.313h8.334a2.084 2.084 0 0 0 2.07-2.313l-1.313-11.818a8.242 8.242 0 0 0 3.41-6.702c0-4.596-3.738-8.333-8.334-8.333s-8.333 3.737-8.333 8.333a8.243 8.243 0 0 0 3.41 6.702z" fill="#303C42"/>
    <path d="M50 58.333a4.172 4.172 0 0 1 4.167 4.167c0 1.597-.908 3.027-2.369 3.735a2.085 2.085 0 0 0-1.163 2.106l1.204 10.826h-3.678l1.204-10.826a2.085 2.085 0 0 0-1.163-2.106c-1.461-.708-2.368-2.138-2.368-3.735A4.172 4.172 0 0 1 50 58.333z" fill="#5C6671"/>
    <path opacity=".1" d="M48.382 66.406c-.28-.56-.465-1.169-.465-1.823a4.172 4.172 0 0 1 4.166-4.166c.61 0 1.179.146 1.701.382-.654-1.447-2.096-2.466-3.784-2.466a4.172 4.172 0 0 0-4.167 4.167c0 1.597.908 3.027 2.368 3.735.079.038.11.125.181.171zM51.158 73.04l-.485-4.353c-.137-.119-.22-.286-.388-.368a4.253 4.253 0 0 1-1.077-.764c.076.258.188.507.157.786l-1.204 10.826h2.315l.682-6.127z" fill="#000"/>
    <path d="M85.417 37.5h-6.25v-8.333C79.167 13.084 66.083 0 50 0 33.917 0 20.833 13.084 20.833 29.167V37.5h-6.25a2.082 2.082 0 0 0-2.083 2.083v52.084c0 4.596 3.737 8.333 8.333 8.333h58.334c4.596 0 8.333-3.737 8.333-8.333V39.583a2.082 2.082 0 0 0-2.083-2.083zm-18.75 0H33.333v-8.333C33.333 19.977 40.81 12.5 50 12.5c9.19 0 16.667 7.477 16.667 16.667V37.5z" fill="url(#a)"/>
    <defs>
        <linearGradient id="a" x1="12.838" y1="38.4" x2="95.276" y2="76.841" gradientUnits="userSpaceOnUse">
            <stop stop-color="#fff" stop-opacity=".2"/>
            <stop offset="1" stop-color="#fff" stop-opacity="0"/>
        </linearGradient>
    </defs>
</svg>
