<svg width="100" height="100" fill="none" xmlns="http://www.w3.org/2000/svg">
    <path fill-rule="evenodd" clip-rule="evenodd" d="M39.257 1.953c-1.976 0-5.055 6.079-5.055 8.808 0 2.73 2.264 4.944 5.055 4.944 2.79 0 5.055-2.214 5.055-4.944s-3.079-8.808-5.055-8.808zM60.743 1.953c-1.976 0-5.055 6.079-5.055 8.808 0 2.73 2.26 4.944 5.055 4.944 2.79 0 5.05-2.214 5.05-4.944s-3.079-8.808-5.05-8.808z" fill="#FFE6B4"/>
    <path fill-rule="evenodd" clip-rule="evenodd" d="M60.743 24.397H26.834c-2.525 0-4.584 2.065-4.584 4.59v6.228h11.066a3.097 3.097 0 0 1 3.084 3.09v5.846a4.232 4.232 0 0 0 4.219 4.218 4.232 4.232 0 0 0 4.219-4.218V38.304a4.232 4.232 0 0 1 4.218-4.218 4.232 4.232 0 0 1 4.22 4.218 4.232 4.232 0 0 0 4.218 4.22 4.232 4.232 0 0 0 4.219-4.22c0-1.7 1.39-3.089 3.09-3.089H77.75v-6.228a4.603 4.603 0 0 0-4.59-4.59H60.744z" fill="#FF7B79"/>
    <path fill-rule="evenodd" clip-rule="evenodd" d="M53.275 38.304a4.232 4.232 0 0 0-4.219-4.218 4.232 4.232 0 0 0-4.219 4.218v5.847a4.232 4.232 0 0 1-4.218 4.218 4.232 4.232 0 0 1-4.22-4.218v-5.847c0-1.7-1.389-3.089-3.083-3.089H22.249v21.426h55.502V35.215H64.8c-1.7 0-3.09 1.39-3.09 3.09a4.232 4.232 0 0 1-4.218 4.218 4.232 4.232 0 0 1-4.218-4.219z" fill="#FFBDBC"/>
    <path fill-rule="evenodd" clip-rule="evenodd" d="M77.751 56.64H17.77c-2.768 0-5.038 2.265-5.038 5.039v7.08l1.75 1.883c.875.947 1.943 1.85 4.324 1.85 2.38 0 3.449-.903 4.323-1.85l1.75-1.882c.875-.941 1.943-1.844 4.324-1.844 2.38 0 3.449.903 4.324 1.844l1.749 1.882c.875.947 1.943 1.85 4.324 1.85 2.38 0 3.449-.903 4.324-1.85l1.749-1.882c.875-.941 1.949-1.844 4.324-1.844 2.38 0 3.45.903 4.324 1.844l1.75 1.882c.874.947 1.948 1.85 4.323 1.85 2.38 0 3.449-.903 4.33-1.85l1.743-1.882c.875-.941 1.95-1.844 4.324-1.844 2.38 0 3.45.903 4.33 1.844l1.744 1.882c.874.947 1.949 1.85 4.33 1.85 2.374 0 3.448-.903 4.323-1.85l1.744-1.882v-7.081c0-2.774-2.264-5.038-5.032-5.038H77.75z" fill="#FF7B79"/>
    <path fill-rule="evenodd" clip-rule="evenodd" d="M29.53 88.884a4.835 4.835 0 0 1-4.834-4.838 4.834 4.834 0 0 1 9.667 0 4.835 4.835 0 0 1-4.833 4.838zm20.467 0a4.835 4.835 0 0 1-4.833-4.838 4.834 4.834 0 0 1 9.667 0 4.835 4.835 0 0 1-4.834 4.838zm10.397-16.393c-2.375 0-3.449-.902-4.323-1.849l-1.75-1.882c-.875-.942-1.943-1.844-4.324-1.844-2.375 0-3.449.902-4.324 1.844l-1.749 1.882c-.875.947-1.943 1.85-4.324 1.85-2.38 0-3.449-.903-4.324-1.85l-1.749-1.882c-.875-.942-1.943-1.844-4.324-1.844-2.38 0-3.449.902-4.324 1.844l-1.749 1.882c-.875.947-1.943 1.85-4.324 1.85-2.38 0-3.45-.903-4.324-1.85l-1.75-1.882v20.124h57.546a4.833 4.833 0 0 1-4.64-4.833 4.834 4.834 0 1 1 5.021 4.833h16.604V68.76l-1.744 1.882c-.875.947-1.949 1.85-4.324 1.85-2.38 0-3.455-.903-4.33-1.85l-1.743-1.882c-.88-.941-1.95-1.844-4.33-1.844-2.375 0-3.45.903-4.324 1.844l-1.744 1.882c-.88.947-1.949 1.85-4.33 1.85z" fill="#FFBDBC"/>
    <path fill-rule="evenodd" clip-rule="evenodd" d="M29.53 79.212a4.834 4.834 0 0 0-4.834 4.834 4.835 4.835 0 0 0 4.833 4.838 4.835 4.835 0 0 0 4.834-4.838 4.834 4.834 0 0 0-4.834-4.834zM49.997 79.212a4.834 4.834 0 0 0-4.833 4.834 4.835 4.835 0 0 0 4.833 4.838 4.835 4.835 0 0 0 4.834-4.838 4.834 4.834 0 0 0-4.834-4.834zM70.47 79.218a4.83 4.83 0 0 0-4.833 4.833 4.833 4.833 0 0 0 4.64 4.833h.382a4.834 4.834 0 0 0-.188-9.666z" fill="#FF7B79"/>
    <path fill-rule="evenodd" clip-rule="evenodd" d="M70.277 88.884H7.407l4.894 9.163h75.393l4.9-9.163H70.277z" fill="#fff"/>
    <path d="M98.047 86.931h-8.832V61.68c0-3.855-3.133-6.991-6.986-6.991h-2.525V28.987a6.55 6.55 0 0 0-6.543-6.543H62.696v-5.06c2.913-.836 5.05-3.487 5.05-6.623 0-1.957-1.046-4.57-2.025-6.363C64.128 1.48 62.453 0 60.743 0c-1.712 0-3.388 1.48-4.983 4.397-.979 1.793-2.025 4.406-2.025 6.364 0 3.137 2.139 5.788 5.055 6.623v5.06H41.21v-5.06c2.916-.835 5.054-3.487 5.054-6.623 0-1.958-1.046-4.571-2.025-6.364C42.645 1.48 40.97 0 39.257 0c-1.712 0-3.389 1.48-4.983 4.397-.979 1.793-2.025 4.406-2.025 6.364 0 3.137 2.138 5.788 5.055 6.623v5.06h-10.47c-3.605 0-6.538 2.935-6.538 6.543v25.7H17.77a7 7 0 0 0-6.99 6.992V86.93H1.952a1.953 1.953 0 0 0 0 3.907h4.282l4.343 8.129A1.953 1.953 0 0 0 12.3 100h75.393c.72 0 1.383-.397 1.722-1.032l4.348-8.13h4.283a1.953 1.953 0 0 0 0-3.907zm-40.405-76.17c0-1.798 1.948-5.681 3.1-6.703 1.15 1.024 3.097 4.907 3.097 6.704 0 1.649-1.389 2.99-3.096 2.99-1.71 0-3.101-1.341-3.101-2.99zm-21.487 0c0-1.8 1.95-5.684 3.102-6.705 1.151 1.02 3.101 4.906 3.101 6.705 0 1.65-1.391 2.991-3.101 2.991s-3.102-1.341-3.102-2.99zM24.202 28.987a2.637 2.637 0 0 1 2.631-2.637h46.328a2.64 2.64 0 0 1 2.637 2.637v4.275H64.8a5.048 5.048 0 0 0-5.042 5.042 2.268 2.268 0 0 1-2.266 2.266 2.268 2.268 0 0 1-2.265-2.266 6.179 6.179 0 0 0-6.172-6.171 6.179 6.179 0 0 0-6.172 6.171v5.847a2.268 2.268 0 0 1-2.266 2.266 2.268 2.268 0 0 1-2.265-2.266v-5.847c0-2.78-2.26-5.042-5.037-5.042h-9.114v-4.275zm-9.517 32.692a3.088 3.088 0 0 1 3.085-3.085h23.458a1.953 1.953 0 0 0 0-3.906H24.202v-17.52h9.114c.613 0 1.131.52 1.131 1.136v5.847a6.179 6.179 0 0 0 6.172 6.172 6.179 6.179 0 0 0 6.172-6.172v-5.847a2.268 2.268 0 0 1 2.265-2.265 2.268 2.268 0 0 1 2.266 2.265 6.179 6.179 0 0 0 6.172 6.172 6.179 6.179 0 0 0 6.172-6.172c0-.615.52-1.135 1.136-1.135h10.996v17.519h-17.03a1.953 1.953 0 0 0 0 3.906H82.23a3.086 3.086 0 0 1 3.08 3.085v6.315l-1.226 1.323c-.66.715-1.254 1.221-2.889 1.221-1.64 0-2.234-.506-2.897-1.223l-1.75-1.89c-1.139-1.217-2.713-2.462-5.756-2.462-3.05 0-4.62 1.247-5.756 2.47l-1.742 1.88c-.667.717-1.266 1.225-2.899 1.225-1.634 0-2.228-.506-2.893-1.225l-1.75-1.883c-1.133-1.22-2.704-2.467-5.754-2.467-3.05 0-4.62 1.247-5.755 2.467l-1.753 1.887c-.66.715-1.255 1.221-2.89 1.221-1.634 0-2.228-.506-2.892-1.225l-1.75-1.883c-1.134-1.22-2.704-2.467-5.755-2.467-3.05 0-4.62 1.247-5.754 2.467l-1.753 1.887c-.661.715-1.255 1.221-2.89 1.221-1.634 0-2.228-.506-2.893-1.225l-1.227-1.32v-6.314zm0 11.688c.99.625 2.286 1.077 4.12 1.077 3.058 0 4.627-1.252 5.755-2.472l1.75-1.883c.663-.714 1.26-1.22 2.893-1.22 1.633 0 2.229.506 2.893 1.22l1.745 1.878c1.132 1.225 2.701 2.477 5.759 2.477 3.058 0 4.627-1.252 5.754-2.472l1.75-1.883c.664-.714 1.26-1.22 2.893-1.22 1.633 0 2.23.506 2.893 1.22l1.746 1.878c1.131 1.225 2.7 2.477 5.758 2.477 3.05 0 4.623-1.25 5.762-2.475l1.742-1.88c.664-.714 1.26-1.22 2.893-1.22 1.632 0 2.233.508 2.897 1.218l1.742 1.88c1.132 1.225 2.701 2.477 5.764 2.477 1.831 0 3.126-.45 4.115-1.073v13.56h-8.696c.412-.875.643-1.85.643-2.88a6.794 6.794 0 0 0-6.786-6.786 6.794 6.794 0 0 0-6.786 6.786c0 1.03.231 2.005.643 2.88H56.14a6.756 6.756 0 0 0 .644-2.885 6.794 6.794 0 0 0-6.786-6.787 6.794 6.794 0 0 0-6.786 6.787c0 1.031.232 2.009.644 2.885h-8.184a6.756 6.756 0 0 0 .644-2.885 6.794 6.794 0 0 0-6.786-6.787 6.794 6.794 0 0 0-6.786 6.787c0 1.031.232 2.009.645 2.885h-8.703V73.367zm58.666 10.684a2.883 2.883 0 0 1-2.88 2.88 2.883 2.883 0 0 1-2.88-2.88 2.883 2.883 0 0 1 2.88-2.88 2.883 2.883 0 0 1 2.88 2.88zm-20.474-.005a2.886 2.886 0 0 1-2.88 2.885 2.883 2.883 0 0 1 0-5.766 2.883 2.883 0 0 1 2.88 2.88zm-20.467 0a2.886 2.886 0 0 1-2.88 2.885 2.883 2.883 0 0 1 0-5.766 2.883 2.883 0 0 1 2.88 2.88zm54.113 12.048H13.472l-2.808-5.256h78.67l-2.81 5.256z" fill="#000"/>
    <path d="M49.997 58.594h.011a1.949 1.949 0 0 0 1.948-1.953c0-1.079-.88-1.953-1.958-1.953a1.953 1.953 0 0 0 0 3.906z" fill="#000"/>
</svg>
