<svg width="100" height="100" viewBox="0 0 100 100" fill="none" xmlns="http://www.w3.org/2000/svg">
    <path fill-rule="evenodd" clip-rule="evenodd" d="M6.25 65.625a6.25 6.25 0 0 0 6.25 6.25h75a6.25 6.25 0 0 0 6.25-6.25v-31.25a6.25 6.25 0 0 0-6.25-6.25h-75a6.25 6.25 0 0 0-6.25 6.25v31.25zm6.25 12.5c-6.904 0-12.5-5.596-12.5-12.5v-31.25c0-6.904 5.596-12.5 12.5-12.5h75c6.904 0 12.5 5.596 12.5 12.5v31.25c0 6.904-5.596 12.5-12.5 12.5h-75z" fill="#0C2B42"/>
    <path fill-rule="evenodd" clip-rule="evenodd" d="M3.125 68.75A3.125 3.125 0 0 1 0 65.625v-4.688a4.688 4.688 0 0 1 4.688-4.687v-12.5A4.688 4.688 0 0 1 0 39.062v-4.687a3.125 3.125 0 1 1 6.25 0v3.323a6.25 6.25 0 0 1 4.688 6.052v12.5a6.25 6.25 0 0 1-4.688 6.052v3.323c0 1.726-1.4 3.125-3.125 3.125z" fill="#0C2B42"/>
</svg>
