<svg width="30" height="30" fill="none" xmlns="http://www.w3.org/2000/svg">
    <path fill-rule="evenodd" clip-rule="evenodd" d="M15 1.875c.406 0 .766.261.892.648l2.836 8.727h9.397a.937.937 0 0 1 .53 1.71l-7.618 5.225 2.937 8.703a.938.938 0 0 1-1.438 1.059L15 22.486l-7.536 5.46a.937.937 0 0 1-1.438-1.058l2.937-8.703-7.618-5.224a.938.938 0 0 1 .53-1.711h9.397l2.836-8.727A.937.937 0 0 1 15 1.875zm0 3.97-2.155 6.632a.938.938 0 0 1-.892.648H4.9l5.708 3.914a.938.938 0 0 1 .358 1.073l-2.225 6.594 5.709-4.137a.938.938 0 0 1 1.1 0l5.709 4.137-2.225-6.594a.937.937 0 0 1 .358-1.073l5.708-3.914h-7.053a.938.938 0 0 1-.892-.648L15 5.846z" fill="#0C2B42"/>
</svg>
