<svg width="116" height="117" viewBox="0 0 116 117" fill="none" xmlns="http://www.w3.org/2000/svg">
    <path d="M58 25.375c7.007 0 12.688-5.68 12.688-12.688C70.688 5.68 65.007 0 58 0c-7.007 0-12.688 5.68-12.688 12.688 0 7.007 5.68 12.687 12.688 12.687zM99.008 29H16.992a6.117 6.117 0 1 0 0 12.234h23.082c1.566 0 3.399.7 4.437 3.399 1.212 3.133.618 9.185-.13 13.872l-.978 5.54a.096.096 0 0 1-.028.079l-7.839 44.59a6.213 6.213 0 0 0 5.019 7.191 6.139 6.139 0 0 0 6.27-2.792c.429-.689.718-1.457.848-2.258l5.417-30.994S54.828 72.5 58 72.5c3.224 0 4.925 7.361 4.925 7.361l5.418 31.021a6.175 6.175 0 0 0 4.747 5.036 6.168 6.168 0 0 0 4.696-.841 6.177 6.177 0 0 0 2.705-6.37l-7.841-44.59a.101.101 0 0 0-.025-.08l-.981-5.539c-.748-4.687-1.342-10.739-.13-13.872 1.034-2.692 2.925-3.398 4.369-3.398h23.125a6.116 6.116 0 1 0 0-12.235V29z" fill="#F8F8F8"/>
</svg>
