<svg width="100" height="100" fill="none" xmlns="http://www.w3.org/2000/svg">
    <g clip-path="url(#a)">
        <path d="M94.013 45.496v.03l-19.72-6.666-2.234-.755A20.963 20.963 0 0 0 71.656 37C68.255 28.362 59.828 22.233 50 22.233c-9.986 0-18.524 6.326-21.815 15.184-.14.373-.268.753-.389 1.136l-2.13.753c-2.496.886-7.543 1.134-19.672 6.965a33.626 33.626 0 0 1-.008-.775C5.986 21.188 25.69 1.482 50 1.482c24.308 0 44.013 19.706 44.013 44.014z" fill="#EB5569"/>
        <path d="M50 8.4c-18.385 0-33.691 13.444-36.599 31.019l12.265-.113 2.13-.753c.121-.383.25-.762.39-1.136C31.476 28.559 40.014 22.233 50 22.233c9.828 0 18.255 6.129 21.656 14.767.145.364.279.731.403 1.105l2.234.755 12.187-.113C83.3 21.504 68.15 8.399 50 8.399z" fill="#FFF0AD"/>
        <path d="M50 8.4c-18.385 0-33.691 13.444-36.599 31.019 1.69-.016 3.338-.032 4.949-.045C21.144 22.613 35.216 9.62 52.47 8.48A37.87 37.87 0 0 0 50 8.4z" fill="#FFE177"/>
        <path d="M52.47 1.551C29.632 2.814 11.438 21.488 10.938 44.52l-4.944 1.75a33.626 33.626 0 0 1-.008-.774C5.986 21.188 25.69 1.482 50 1.482c.83 0 1.652.024 2.47.07z" fill="#E53950"/>
        <path d="m78.942 36.93-7.286.07C68.255 28.362 59.828 22.233 50 22.233c-9.986 0-18.524 6.326-21.814 15.184-2.32.024-4.75.047-7.287.071 3.516-12.767 15.231-22.172 29.1-22.172 13.667 0 25.242 9.133 28.943 21.615z" fill="#C8EFFE"/>
        <path d="M52.478 15.417c-12.76 1.034-23.304 10.043-26.625 22.024l-4.954.047c3.516-12.767 15.231-22.172 29.1-22.172.835 0 1.66.034 2.479.101z" fill="#99E6FC"/>
        <path d="M26.06 76.636c10.058-1.656 17.732-10.391 17.732-20.92 0-11.647-9.389-21.101-21.011-21.204-11.633-.103-21.257 9.314-21.396 20.944-.126 10.645 7.59 19.51 17.731 21.18a.395.395 0 0 1 .333.39v8.266a.79.79 0 0 1-.791.791h-4.172a.79.79 0 0 0-.79.79v5.402c0 .436.353.79.79.79h4.172a.79.79 0 0 1 .79.79v3.872c0 .437.356.79.791.79h4.698a.79.79 0 0 0 .79-.79v-3.871a.79.79 0 0 1 .79-.79h4.175a.79.79 0 0 0 .79-.791v-5.401a.79.79 0 0 0-.79-.791h-4.174a.79.79 0 0 1-.79-.79v-8.267c0-.194.14-.358.331-.39zm-3.471-6.375c-8.034 0-14.546-6.512-14.546-14.546 0-8.031 6.512-14.545 14.546-14.545 8.034 0 14.545 6.514 14.545 14.545 0 8.034-6.512 14.546-14.545 14.546z" fill="#F58A97"/>
        <path d="M80.883 76.636c10.06-1.656 17.734-10.391 17.734-20.92 0-11.647-9.39-21.101-21.014-21.204-11.63-.103-21.255 9.314-21.395 20.944-.127 10.645 7.59 19.51 17.733 21.18a.395.395 0 0 1 .332.39v8.059a.79.79 0 0 1-.79.79H70.33a.79.79 0 0 0-.654 1.234l7.081 10.444a.79.79 0 0 0 1.308 0l7.081-10.444a.79.79 0 0 0-.654-1.233h-3.15a.79.79 0 0 1-.79-.791v-8.06c0-.193.14-.357.331-.389zm-3.472-6.375c-8.034 0-14.545-6.512-14.545-14.546 0-8.031 6.511-14.545 14.545-14.545 8.034 0 14.546 6.514 14.546 14.545 0 8.034-6.512 14.546-14.546 14.546z" fill="#C8EFFE"/>
        <path d="M75.27 85.876h3.153a.79.79 0 0 0 .79-.791v-8.06a.395.395 0 0 0-.331-.389c-10.143-1.67-17.86-10.535-17.734-21.18.13-10.735 8.34-19.585 18.751-20.8a20.975 20.975 0 0 0-2.296-.144c-11.63-.103-21.255 9.314-21.395 20.944-.127 10.645 7.59 19.51 17.733 21.18a.395.395 0 0 1 .332.39v8.059a.79.79 0 0 1-.79.79H70.33a.79.79 0 0 0-.654 1.234l7.081 10.444a.79.79 0 0 0 1.308 0l1.817-2.68-5.265-7.764a.79.79 0 0 1 .654-1.233z" fill="#99E6FC"/>
        <path d="M24.39 97.727v-3.871a.79.79 0 0 0-.791-.79h-4.172a.79.79 0 0 1-.79-.791v-5.401a.79.79 0 0 1 .79-.791h4.172a.79.79 0 0 0 .79-.79v-8.267a.395.395 0 0 0-.332-.39C13.915 74.966 6.2 66.101 6.326 55.456c.128-10.735 8.338-19.585 18.751-20.8a20.973 20.973 0 0 0-2.296-.144c-11.633-.103-21.257 9.314-21.396 20.944-.126 10.645 7.59 19.51 17.731 21.18a.395.395 0 0 1 .333.39v8.266a.79.79 0 0 1-.791.791h-4.172a.79.79 0 0 0-.79.79v5.402c0 .436.353.79.79.79h4.172a.79.79 0 0 1 .79.79v3.872c0 .437.356.79.791.79h4.698a.834.834 0 0 0 .122-.01.791.791 0 0 1-.67-.78z" fill="#F07281"/>
        <path d="M6.716 55.716c0 8.838 7.19 16.028 16.028 16.028 8.838 0 16.028-7.19 16.028-16.028 0-8.837-7.19-16.028-16.028-16.028-8.838 0-16.028 7.19-16.028 16.028zm29.091 0c0 7.203-5.86 13.063-13.063 13.063S9.681 62.92 9.681 55.716s5.86-13.063 13.063-13.063 13.063 5.86 13.063 13.063zM77.568 39.688c-8.838 0-16.028 7.19-16.028 16.028 0 8.838 7.19 16.028 16.028 16.028 8.838 0 16.027-7.19 16.027-16.028 0-8.837-7.19-16.028-16.027-16.028zm0 29.091c-7.203 0-13.064-5.86-13.064-13.063s5.86-13.063 13.064-13.063c7.203 0 13.063 5.86 13.063 13.063s-5.86 13.063-13.063 13.063z" fill="#000"/>
        <path d="M98.713 57.893A1.483 1.483 0 0 0 97 59.101a19.653 19.653 0 0 1-16.51 16.122 1.482 1.482 0 0 0-1.265 1.466v9.186c0 .82.664 1.483 1.482 1.483h2.637l-5.777 8.518-5.775-8.519h2.637c.818 0 1.482-.663 1.482-1.482V76.69c0-.734-.538-1.358-1.264-1.466-9.579-1.421-16.801-9.808-16.801-19.508 0-10.874 8.847-19.72 19.721-19.72 9.623 0 17.796 6.87 19.433 16.335a1.483 1.483 0 0 0 2.921-.506 22.649 22.649 0 0 0-4.418-9.993c-.9-11.292-5.95-21.77-14.254-29.549A45.33 45.33 0 0 0 50.156 0a45.329 45.329 0 0 0-31.093 12.282C10.757 20.062 5.708 30.544 4.81 41.84A22.573 22.573 0 0 0 .057 55.716 22.674 22.674 0 0 0 5.621 70.6a22.7 22.7 0 0 0 12.502 7.332v6.67h-3.482a2.275 2.275 0 0 0-2.272 2.272v5.402a2.275 2.275 0 0 0 2.273 2.273h3.481v3.18A2.275 2.275 0 0 0 20.396 100h4.697a2.275 2.275 0 0 0 2.272-2.273v-3.18h3.482a2.275 2.275 0 0 0 2.273-2.272v-5.402a2.275 2.275 0 0 0-2.273-2.273h-3.482v-6.67a22.698 22.698 0 0 0 18.066-22.214c0-9.501-5.871-17.656-14.176-21.03 3.859-6.713 11.108-10.97 18.9-10.97 7.794 0 15.043 4.257 18.903 10.971C60.753 38.06 54.88 46.214 54.88 55.715A22.676 22.676 0 0 0 60.444 70.6a22.7 22.7 0 0 0 12.502 7.332v6.463h-3.95a1.482 1.482 0 0 0-1.227 2.313L76.34 99.35a1.482 1.482 0 0 0 2.454 0l8.573-12.642a1.483 1.483 0 0 0-1.227-2.314h-3.95v-6.462a22.512 22.512 0 0 0 11.236-5.993 22.506 22.506 0 0 0 6.495-12.333 1.483 1.483 0 0 0-1.209-1.713zM50.156 2.964c20.813 0 38.465 15.2 41.918 35.311a22.624 22.624 0 0 0-4.726-3.027 38.702 38.702 0 0 0-8.706-15.742 1.482 1.482 0 0 0-2.19 2 35.789 35.789 0 0 1 7.38 12.407 22.7 22.7 0 0 0-4.547-.817 31.69 31.69 0 0 0-11.084-13.604 31.44 31.44 0 0 0-18.045-5.658 31.44 31.44 0 0 0-18.045 5.658 31.688 31.688 0 0 0-11.083 13.602c-1.567.117-3.09.395-4.553.817C21.38 19.627 34.843 9.88 50.155 9.88c7.652 0 14.948 2.4 21.099 6.942a1.482 1.482 0 0 0 1.76-2.385c-6.664-4.92-14.568-7.521-22.858-7.521-8.73 0-16.97 2.856-23.83 8.26C19.86 20.27 15.134 27.376 12.958 35.25a22.751 22.751 0 0 0-4.723 3.039C11.683 18.17 29.338 2.964 50.156 2.964zm-7.689 52.752c0 9.7-7.223 18.086-16.801 19.507A1.482 1.482 0 0 0 24.4 76.69v8.603a2.275 2.275 0 0 0 2.273 2.272h3.482v4.02h-3.482a2.275 2.275 0 0 0-2.273 2.272v3.18h-3.313v-3.18a2.275 2.275 0 0 0-2.273-2.273h-3.482v-4.019h3.482a2.275 2.275 0 0 0 2.273-2.272v-8.603c0-.734-.538-1.358-1.265-1.466-9.578-1.421-16.801-9.807-16.801-19.507 0-10.875 8.847-19.723 19.723-19.723 10.875 0 19.722 8.848 19.722 19.723zM63.524 24.68a24.628 24.628 0 0 0-13.368-3.929 24.628 24.628 0 0 0-13.368 3.93 24.857 24.857 0 0 0-8.398 9.06 22.586 22.586 0 0 0-4.104-.658c4.745-9.822 14.881-16.285 25.87-16.285 10.99 0 21.125 6.463 25.87 16.285a22.58 22.58 0 0 0-4.104.658 24.854 24.854 0 0 0-8.398-9.06z" fill="#000"/>
    </g>
    <defs>
        <clipPath id="a">
            <path fill="#fff" d="M0 0h100v100H0z"/>
        </clipPath>
    </defs>
</svg>
