<svg width="100" height="100" fill="none" xmlns="http://www.w3.org/2000/svg">
    <path d="M91.667 65H8.333a6.667 6.667 0 0 0-6.666 6.667v20a6.667 6.667 0 0 0 6.666 6.666h83.334a6.667 6.667 0 0 0 6.666-6.666v-20A6.667 6.667 0 0 0 91.667 65z" fill="#E81E63"/>
    <path fill-rule="evenodd" clip-rule="evenodd" d="M91.667 65h-5a6.667 6.667 0 0 1 6.666 6.667v20a6.667 6.667 0 0 1-6.666 6.666h5a6.667 6.667 0 0 0 6.666-6.666v-20A6.667 6.667 0 0 0 91.667 65z" fill="#AC1457"/>
    <path d="M65 21.667H35a6.667 6.667 0 0 0-6.667 6.666v30A6.667 6.667 0 0 0 35 65h30a6.667 6.667 0 0 0 6.666-6.667v-30A6.667 6.667 0 0 0 65 21.667z" fill="#FFDB00"/>
    <path fill-rule="evenodd" clip-rule="evenodd" d="M65 21.667h-5a6.667 6.667 0 0 1 6.666 6.666v30A6.667 6.667 0 0 1 60 65h5a6.667 6.667 0 0 0 6.666-6.667v-30A6.667 6.667 0 0 0 65 21.667z" fill="#FDC008"/>
    <path d="M91.667 63.333H71.623a8.247 8.247 0 0 0 1.71-5v-30A8.343 8.343 0 0 0 65 20h-3.333v-8.333C61.667 5.223 56.443 0 50 0S38.333 5.223 38.333 11.667V20H35a8.343 8.343 0 0 0-8.333 8.333v30a8.247 8.247 0 0 0 1.71 5H8.333A8.343 8.343 0 0 0 0 71.667v20A8.343 8.343 0 0 0 8.333 100h83.334A8.343 8.343 0 0 0 100 91.667v-20a8.343 8.343 0 0 0-8.333-8.334zm-50-51.666a8.333 8.333 0 1 1 16.666 0V20H41.667v-8.333zM30 58.333v-30a5 5 0 0 1 5-5h30a5 5 0 0 1 5 5v30a5 5 0 0 1-5 5H35a5 5 0 0 1-5-5zm66.667 33.334a5 5 0 0 1-5 5H8.333a5 5 0 0 1-5-5v-20a5 5 0 0 1 5-5h83.334a5 5 0 0 1 5 5v20z" fill="#000"/>
    <path fill-rule="evenodd" clip-rule="evenodd" d="M56.178 75.488a1.667 1.667 0 0 0-2.356 0L50 79.31l-3.822-3.822a1.667 1.667 0 0 0-2.356 2.357l3.821 3.822-3.821 3.821a1.667 1.667 0 1 0 2.356 2.357L50 84.023l3.822 3.822a1.667 1.667 0 0 0 2.356-2.357l-3.821-3.821 3.821-3.822c.65-.65.65-1.706 0-2.357zM39.512 75.488a1.667 1.667 0 0 0-2.357 0l-3.822 3.822-3.821-3.822a1.667 1.667 0 0 0-2.357 2.357l3.822 3.822-3.822 3.821a1.667 1.667 0 1 0 2.357 2.357l3.821-3.822 3.822 3.822a1.667 1.667 0 0 0 2.357-2.357l-3.822-3.821 3.822-3.822c.65-.65.65-1.706 0-2.357zM22.845 75.488a1.667 1.667 0 0 0-2.357 0l-3.821 3.822-3.822-3.822a1.667 1.667 0 0 0-2.357 2.357l3.822 3.822-3.822 3.821a1.667 1.667 0 1 0 2.357 2.357l3.822-3.822 3.821 3.822a1.667 1.667 0 0 0 2.357-2.357l-3.822-3.821 3.822-3.822c.65-.65.65-1.706 0-2.357zM89.512 75.488a1.667 1.667 0 0 0-2.357 0l-3.822 3.822-3.821-3.822a1.667 1.667 0 0 0-2.357 2.357l3.822 3.822-3.822 3.821a1.667 1.667 0 1 0 2.357 2.357l3.821-3.822 3.822 3.822a1.667 1.667 0 0 0 2.357-2.357l-3.822-3.821 3.822-3.822c.65-.65.65-1.706 0-2.357zM72.845 75.488a1.667 1.667 0 0 0-2.356 0l-3.822 3.822-3.822-3.822a1.667 1.667 0 0 0-2.356 2.357l3.821 3.822-3.822 3.821a1.667 1.667 0 1 0 2.357 2.357l3.822-3.822 3.822 3.822a1.667 1.667 0 0 0 2.356-2.357l-3.822-3.821 3.822-3.822c.65-.65.65-1.706 0-2.357zM50 28.333c-5.52.006-9.994 4.48-10 10a1.667 1.667 0 1 0 3.334 0A6.667 6.667 0 1 1 50 45c-.92 0-1.666.746-1.666 1.667V50a1.667 1.667 0 1 0 3.333 0v-1.805A10 10 0 0 0 50 28.333z" fill="#000"/>
    <path d="M50 58.333A1.667 1.667 0 1 0 50 55a1.667 1.667 0 0 0 0 3.333z" fill="#000"/>
</svg>
